<svg width="48" height="48" viewBox="0 0 48 48" fill="none" xmlns="http://www.w3.org/2000/svg">
<circle cx="24" cy="24" r="24" fill="#F1E1F7"/>
<g clip-path="url(#clip0_311_71)">
<path d="M33.5 34H14.5C13.1 34 12 32.9 12 31.5V19.5C12 18.1 13.1 17 14.5 17H33.5C34.9 17 36 18.1 36 19.5V31.5C36 32.9 34.9 34 33.5 34ZM14.5 18C13.7 18 13 18.7 13 19.5V31.5C13 32.3 13.7 33 14.5 33H33.5C34.3 33 35 32.3 35 31.5V19.5C35 18.7 34.3 18 33.5 18H14.5Z" fill="#BB6BD9"/>
<path d="M27.5 18C27.2 18 27 17.8 27 17.5V15.5C27 15.2 26.8 15 26.5 15H21.5C21.2 15 21 15.2 21 15.5V17.5C21 17.8 20.8 18 20.5 18C20.2 18 20 17.8 20 17.5V15.5C20 14.7 20.7 14 21.5 14H26.5C27.3 14 28 14.7 28 15.5V17.5C28 17.8 27.8 18 27.5 18Z" fill="#BB6BD9"/>
<path d="M24 26C23.9 26 23.9 26 23.8 26L12.3 22C12.1 21.9 11.9 21.6 12 21.3C12.1 21.1 12.4 20.9 12.7 21L24 25L35.3 21C35.6 20.9 35.8 21 35.9 21.3C36 21.6 35.9 21.8 35.6 21.9L24.1 25.9C24.1 26 24.1 26 24 26Z" fill="#BB6BD9"/>
</g>
<defs>
<clipPath id="clip0_311_71">
<rect width="24" height="24" fill="white" transform="translate(12 12)"/>
</clipPath>
</defs>
</svg>
