<svg width="48" height="48" viewBox="0 0 48 48" fill="none" xmlns="http://www.w3.org/2000/svg">
<circle cx="23.9999" cy="24" r="24" fill="#FEECEB"/>
<g clip-path="url(#clip0_312_31)">
<path d="M35.6174 30.5334L26.4439 14.6445C25.9338 13.7611 25.0202 13.2335 23.9999 13.2335C22.9797 13.2335 22.066 13.7611 21.5559 14.6445L12.3825 30.5333C11.8724 31.4169 11.8724 32.4719 12.3825 33.3554C12.8927 34.239 13.8063 34.7665 14.8266 34.7665H33.1733C34.1935 34.7665 35.1072 34.2389 35.6174 33.3555C36.1275 32.4719 36.1275 31.4169 35.6174 30.5334ZM34.3996 32.6524C34.1437 33.0958 33.6852 33.3604 33.1733 33.3604H14.8266C14.3146 33.3604 13.8562 33.0958 13.6002 32.6524C13.3443 32.2091 13.3443 31.6798 13.6002 31.2364L22.7737 15.3476C23.0296 14.9043 23.4881 14.6396 24 14.6396C24.5118 14.6396 24.9703 14.9043 25.2263 15.3476L34.3997 31.2364C34.6556 31.6798 34.6556 32.2091 34.3996 32.6524Z" fill="#F44336"/>
<path d="M24.7029 20.2505H23.2968V27.2809H24.7029V20.2505Z" fill="#F44336"/>
<path d="M23.9999 28.687C23.483 28.687 23.0625 29.1075 23.0625 29.6244C23.0625 30.1413 23.483 30.5618 23.9999 30.5618C24.5168 30.5618 24.9373 30.1413 24.9373 29.6244C24.9373 29.1075 24.5168 28.687 23.9999 28.687Z" fill="#F44336"/>
</g>
<defs>
<clipPath id="clip0_312_31">
<rect width="24" height="24" fill="white" transform="translate(11.9999 12)"/>
</clipPath>
</defs>
</svg>
