<svg width="48" height="48" viewBox="0 0 48 48" fill="none" xmlns="http://www.w3.org/2000/svg">
<circle cx="23.9999" cy="24" r="24" fill="#EDFBF2"/>
<g clip-path="url(#clip0_441_1388)">
<path d="M35.5734 16.5389C35.2625 16.1713 34.827 15.9468 34.3471 15.9067L17.4461 14.4955C16.9662 14.4554 16.4996 14.6046 16.132 14.9155C15.7658 15.2252 15.5416 15.6585 15.5003 16.136L15.1602 19.3261H13.8025C12.8086 19.3261 11.9999 20.1347 11.9999 21.1287V31.7084C11.9999 32.7023 12.8086 33.511 13.8025 33.511H30.7624C31.7564 33.511 32.565 32.7023 32.565 31.7084V29.9922L33.1669 30.0424C33.2176 30.0467 33.2681 30.0488 33.3182 30.0488C34.2448 30.0488 35.0347 29.3358 35.1132 28.3961L35.9936 17.8531C36.0336 17.3732 35.8844 16.9065 35.5734 16.5389ZM13.8025 20.2636H30.7624C31.2394 20.2636 31.6275 20.6517 31.6275 21.1287V22.0927H12.9374V21.1287C12.9374 20.6517 13.3255 20.2636 13.8025 20.2636ZM12.9374 23.0302H31.6275V24.975H12.9374V23.0302ZM30.7624 32.5735H13.8025C13.3255 32.5735 12.9374 32.1854 12.9374 31.7084V25.9125H31.6275V31.7084C31.6275 32.1854 31.2394 32.5735 30.7624 32.5735ZM35.0593 17.775L34.1789 28.3181C34.1392 28.7934 33.7201 29.148 33.2449 29.1082L32.565 29.0514V21.1287C32.565 20.1347 31.7564 19.3261 30.7624 19.3261H16.1031L16.433 16.2305C16.4334 16.2269 16.4337 16.2234 16.434 16.2198C16.4737 15.7444 16.8926 15.3899 17.3681 15.4297L34.2692 16.8409C34.4995 16.8602 34.7085 16.9679 34.8577 17.1444C35.0069 17.3208 35.0785 17.5447 35.0593 17.775Z" fill="#39CE74"/>
<path d="M29.6658 27.3061H25.1545C24.8956 27.3061 24.6857 27.516 24.6857 27.7749V30.7181C24.6857 30.977 24.8956 31.1869 25.1545 31.1869H29.6658C29.9247 31.1869 30.1346 30.977 30.1346 30.7181V27.7749C30.1346 27.516 29.9247 27.3061 29.6658 27.3061ZM29.1971 30.2494H25.6232V28.2436H29.1971V30.2494Z" fill="#39CE74"/>
</g>
<defs>
<clipPath id="clip0_441_1388">
<rect width="24" height="24" fill="white" transform="translate(11.9999 12)"/>
</clipPath>
</defs>
</svg>
