<svg width="707" height="900" viewBox="0 0 707 900" fill="none" xmlns="http://www.w3.org/2000/svg">
<g clip-path="url(#clip0_447_5746)">
<g clip-path="url(#clip1_447_5746)">
<rect width="1472" height="1175" transform="translate(-258 -55)" fill="url(#paint0_linear_447_5746)"/>
<path d="M392.158 1291.77C426.697 1264.24 445.753 1222.88 442.573 1182.41C438.073 1125.31 393.789 1084.77 336.436 1060.71C315.44 1051.9 293.391 1044.73 273.737 1033.83C226.294 1007.5 228.504 966.3 206.826 926.135C148.462 817.928 -14.3868 896.833 -114.702 871.474C-179.982 854.975 -225.69 801.367 -227.982 743.195C-228.147 739.023 -228.167 734.625 -230.583 730.99C-232.255 728.492 -234.918 726.613 -237.623 724.94C-279.842 698.714 -343.305 708.42 -380.962 736.566C-422.604 767.707 -441.659 815.574 -452.931 862.12C-461.933 899.269 -467.094 937.906 -458.155 975.077C-433.917 1075.97 -315.785 1139.29 -266.526 1233.16C-255.894 1253.44 -248.544 1275.02 -235.93 1294.43C-203.847 1343.79 -141.85 1372.9 -79.9971 1391.7C-3.73392 1414.87 81.9022 1425.93 157.133 1400.39C205.319 1384.03 245.949 1353.76 294.465 1338.15C328.261 1327.23 365.67 1312.87 392.158 1291.77Z" fill="url(#paint1_linear_447_5746)"/>
<g opacity="0.7">
<g opacity="0.7">
<path opacity="0.7" d="M481.799 9.55271L1053.88 -509.636" stroke="#969696" stroke-width="2" stroke-miterlimit="10" stroke-linecap="round" stroke-linejoin="round" stroke-dasharray="0.3 0.3"/>
<path opacity="0.7" d="M505.438 30.1205L1090.32 -500.984" stroke="#969696" stroke-width="2" stroke-miterlimit="10" stroke-linecap="round" stroke-linejoin="round" stroke-dasharray="0.3 0.3"/>
<path opacity="0.7" d="M523.873 55.541L1127.06 -492.6" stroke="#969696" stroke-width="2" stroke-miterlimit="10" stroke-linecap="round" stroke-linejoin="round" stroke-dasharray="0.3 0.3"/>
<path opacity="0.7" d="M545.53 77.9463L1166.08 -486.343" stroke="#969696" stroke-width="2" stroke-miterlimit="10" stroke-linecap="round" stroke-linejoin="round" stroke-dasharray="0.3 0.3"/>
<path opacity="0.7" d="M567.001 100.517L1195.94 -471.557" stroke="#969696" stroke-width="2" stroke-miterlimit="10" stroke-linecap="round" stroke-linejoin="round" stroke-dasharray="0.3 0.3"/>
<path opacity="0.7" d="M588.534 123.047L1232.48 -462.987" stroke="#969696" stroke-width="2" stroke-miterlimit="10" stroke-linecap="round" stroke-linejoin="round" stroke-dasharray="0.3 0.3"/>
<path opacity="0.7" d="M610.728 144.956L1262.19 -448.078" stroke="#969696" stroke-width="2" stroke-miterlimit="10" stroke-linecap="round" stroke-linejoin="round" stroke-dasharray="0.3 0.3"/>
<path opacity="0.7" d="M630.3 169.283L1286.94 -428.542" stroke="#969696" stroke-width="2" stroke-miterlimit="10" stroke-linecap="round" stroke-linejoin="round" stroke-dasharray="0.3 0.3"/>
<path opacity="0.7" d="M652.534 191.172L1314.87 -411.961" stroke="#969696" stroke-width="2" stroke-miterlimit="10" stroke-linecap="round" stroke-linejoin="round" stroke-dasharray="0.3 0.3"/>
<path opacity="0.7" d="M676.131 211.781L1342.35 -394.986" stroke="#969696" stroke-width="2" stroke-miterlimit="10" stroke-linecap="round" stroke-linejoin="round" stroke-dasharray="0.3 0.3"/>
<path opacity="0.7" d="M696.013 235.838L1338.7 -349.039" stroke="#969696" stroke-width="2" stroke-miterlimit="10" stroke-linecap="round" stroke-linejoin="round" stroke-dasharray="0.3 0.3"/>
</g>
</g>
<g opacity="0.7">
<g opacity="0.7">
<path opacity="0.7" d="M-487.492 1139.66L22.0513 608.576" stroke="#969696" stroke-width="2" stroke-miterlimit="10" stroke-linecap="round" stroke-linejoin="round" stroke-dasharray="0.3 0.3"/>
<path opacity="0.7" d="M-471.451 1165.08L54.072 616.939" stroke="#969696" stroke-width="2" stroke-miterlimit="10" stroke-linecap="round" stroke-linejoin="round" stroke-dasharray="0.3 0.3"/>
<path opacity="0.7" d="M-452.581 1187.49L88.0541 623.217" stroke="#969696" stroke-width="2" stroke-miterlimit="10" stroke-linecap="round" stroke-linejoin="round" stroke-dasharray="0.3 0.3"/>
<path opacity="0.7" d="M-433.856 1210.06L114.067 637.982" stroke="#969696" stroke-width="2" stroke-miterlimit="10" stroke-linecap="round" stroke-linejoin="round" stroke-dasharray="0.3 0.3"/>
<path opacity="0.7" d="M-415.11 1232.59L145.902 646.551" stroke="#969696" stroke-width="2" stroke-miterlimit="10" stroke-linecap="round" stroke-linejoin="round" stroke-dasharray="0.3 0.3"/>
<path opacity="0.7" d="M-395.765 1254.5L171.791 661.461" stroke="#969696" stroke-width="2" stroke-miterlimit="10" stroke-linecap="round" stroke-linejoin="round" stroke-dasharray="0.3 0.3"/>
<path opacity="0.7" d="M-378.713 1278.84L193.365 680.996" stroke="#969696" stroke-width="2" stroke-miterlimit="10" stroke-linecap="round" stroke-linejoin="round" stroke-dasharray="0.3 0.3"/>
<path opacity="0.7" d="M-359.347 1300.71L217.685 697.578" stroke="#969696" stroke-width="2" stroke-miterlimit="10" stroke-linecap="round" stroke-linejoin="round" stroke-dasharray="0.3 0.3"/>
<path opacity="0.7" d="M-338.784 1321.32L241.634 714.553" stroke="#969696" stroke-width="2" stroke-miterlimit="10" stroke-linecap="round" stroke-linejoin="round" stroke-dasharray="0.3 0.3"/>
<path opacity="0.7" d="M-321.484 1345.38L238.454 760.5" stroke="#969696" stroke-width="2" stroke-miterlimit="10" stroke-linecap="round" stroke-linejoin="round" stroke-dasharray="0.3 0.3"/>
</g>
<g opacity="0.7">
<path opacity="0.7" d="M-257.608 1322.37L198.402 848.428" stroke="#969696" stroke-width="2" stroke-miterlimit="10" stroke-linecap="round" stroke-linejoin="round" stroke-dasharray="0.3 0.3"/>
<path opacity="0.7" d="M-253.954 1361.01L230.712 856.482" stroke="#969696" stroke-width="2" stroke-miterlimit="10" stroke-linecap="round" stroke-linejoin="round" stroke-dasharray="0.3 0.3"/>
<path opacity="0.7" d="M-239.317 1387.94L259.078 868.748" stroke="#969696" stroke-width="2" stroke-miterlimit="10" stroke-linecap="round" stroke-linejoin="round" stroke-dasharray="0.3 0.3"/>
<path opacity="0.7" d="M-218.733 1408.5L290.831 877.401" stroke="#969696" stroke-width="2" stroke-miterlimit="10" stroke-linecap="round" stroke-linejoin="round" stroke-dasharray="0.3 0.3"/>
<path opacity="0.7" d="M-202.671 1433.9L322.831 885.764" stroke="#969696" stroke-width="2" stroke-miterlimit="10" stroke-linecap="round" stroke-linejoin="round" stroke-dasharray="0.3 0.3"/>
<path opacity="0.7" d="M-183.802 1456.33L356.833 892.042" stroke="#969696" stroke-width="2" stroke-miterlimit="10" stroke-linecap="round" stroke-linejoin="round" stroke-dasharray="0.3 0.3"/>
</g>
</g>
<path d="M300.224 847.437C300.224 849.193 298.799 850.617 297.044 850.617C295.289 850.617 293.865 849.193 293.865 847.437C293.865 845.682 295.289 844.257 297.044 844.257C298.799 844.278 300.224 845.682 300.224 847.437Z" fill="white"/>
<path d="M556.554 141.116C558.31 141.116 559.734 139.692 559.734 137.935C559.734 136.179 558.31 134.755 556.554 134.755C554.798 134.755 553.375 136.179 553.375 137.935C553.375 139.692 554.798 141.116 556.554 141.116Z" fill="white"/>
<g opacity="0.7">
<path opacity="0.7" d="M60.0585 599.428L516.069 125.483" stroke="#969696" stroke-width="2" stroke-miterlimit="10" stroke-linecap="round" stroke-linejoin="round" stroke-dasharray="0.3 0.3"/>
<path opacity="0.7" d="M63.7127 638.085L548.379 133.537" stroke="#969696" stroke-width="2" stroke-miterlimit="10" stroke-linecap="round" stroke-linejoin="round" stroke-dasharray="0.3 0.3"/>
<path opacity="0.7" d="M78.3498 664.992L576.745 145.803" stroke="#969696" stroke-width="2" stroke-miterlimit="10" stroke-linecap="round" stroke-linejoin="round" stroke-dasharray="0.3 0.3"/>
<path opacity="0.7" d="M98.9536 685.56L608.497 154.476" stroke="#969696" stroke-width="2" stroke-miterlimit="10" stroke-linecap="round" stroke-linejoin="round" stroke-dasharray="0.3 0.3"/>
<path opacity="0.7" d="M114.995 710.98L640.517 162.84" stroke="#969696" stroke-width="2" stroke-miterlimit="10" stroke-linecap="round" stroke-linejoin="round" stroke-dasharray="0.3 0.3"/>
<path opacity="0.7" d="M133.865 733.386L674.5 169.117" stroke="#969696" stroke-width="2" stroke-miterlimit="10" stroke-linecap="round" stroke-linejoin="round" stroke-dasharray="0.3 0.3"/>
<path opacity="0.7" d="M152.59 755.957L700.512 183.882" stroke="#969696" stroke-width="2" stroke-miterlimit="10" stroke-linecap="round" stroke-linejoin="round" stroke-dasharray="0.3 0.3"/>
<path opacity="0.7" d="M171.336 778.486L732.347 192.452" stroke="#969696" stroke-width="2" stroke-miterlimit="10" stroke-linecap="round" stroke-linejoin="round" stroke-dasharray="0.3 0.3"/>
<path opacity="0.7" d="M190.659 800.396L758.236 207.362" stroke="#969696" stroke-width="2" stroke-miterlimit="10" stroke-linecap="round" stroke-linejoin="round" stroke-dasharray="0.3 0.3"/>
<path opacity="0.7" d="M207.733 824.743L779.79 226.897" stroke="#969696" stroke-width="2" stroke-miterlimit="10" stroke-linecap="round" stroke-linejoin="round" stroke-dasharray="0.3 0.3"/>
<path opacity="0.7" d="M227.099 846.611L804.11 243.479" stroke="#969696" stroke-width="2" stroke-miterlimit="10" stroke-linecap="round" stroke-linejoin="round" stroke-dasharray="0.3 0.3"/>
<path opacity="0.7" d="M247.64 867.22L828.079 260.454" stroke="#969696" stroke-width="2" stroke-miterlimit="10" stroke-linecap="round" stroke-linejoin="round" stroke-dasharray="0.3 0.3"/>
<path opacity="0.7" d="M264.962 891.278L824.879 306.4" stroke="#969696" stroke-width="2" stroke-miterlimit="10" stroke-linecap="round" stroke-linejoin="round" stroke-dasharray="0.3 0.3"/>
</g>
<g opacity="0.7">
<g opacity="0.7">
<path opacity="0.7" d="M328.817 868.274L784.848 394.329" stroke="#969696" stroke-width="2" stroke-miterlimit="10" stroke-linecap="round" stroke-linejoin="round" stroke-dasharray="0.3 0.3"/>
<path opacity="0.7" d="M332.472 906.931L817.158 402.383" stroke="#969696" stroke-width="2" stroke-miterlimit="10" stroke-linecap="round" stroke-linejoin="round" stroke-dasharray="0.3 0.3"/>
<path opacity="0.7" d="M347.13 933.838L845.525 414.649" stroke="#969696" stroke-width="2" stroke-miterlimit="10" stroke-linecap="round" stroke-linejoin="round" stroke-dasharray="0.3 0.3"/>
<path opacity="0.7" d="M367.713 954.406L877.256 423.302" stroke="#969696" stroke-width="2" stroke-miterlimit="10" stroke-linecap="round" stroke-linejoin="round" stroke-dasharray="0.3 0.3"/>
<path opacity="0.7" d="M383.775 979.806L909.277 431.665" stroke="#969696" stroke-width="2" stroke-miterlimit="10" stroke-linecap="round" stroke-linejoin="round" stroke-dasharray="0.3 0.3"/>
<path opacity="0.7" d="M402.645 1002.23L943.259 437.943" stroke="#969696" stroke-width="2" stroke-miterlimit="10" stroke-linecap="round" stroke-linejoin="round" stroke-dasharray="0.3 0.3"/>
<path opacity="0.7" d="M421.349 1024.8L969.271 452.728" stroke="#969696" stroke-width="2" stroke-miterlimit="10" stroke-linecap="round" stroke-linejoin="round" stroke-dasharray="0.3 0.3"/>
<path opacity="0.7" d="M440.095 1047.33L1001.11 461.298" stroke="#969696" stroke-width="2" stroke-miterlimit="10" stroke-linecap="round" stroke-linejoin="round" stroke-dasharray="0.3 0.3"/>
<path opacity="0.7" d="M459.439 1069.24L1027 476.208" stroke="#969696" stroke-width="2" stroke-miterlimit="10" stroke-linecap="round" stroke-linejoin="round" stroke-dasharray="0.3 0.3"/>
<path opacity="0.7" d="M476.492 1093.57L1048.57 495.722" stroke="#969696" stroke-width="2" stroke-miterlimit="10" stroke-linecap="round" stroke-linejoin="round" stroke-dasharray="0.3 0.3"/>
<path opacity="0.7" d="M495.858 1115.46L1072.89 512.325" stroke="#969696" stroke-width="2" stroke-miterlimit="10" stroke-linecap="round" stroke-linejoin="round" stroke-dasharray="0.3 0.3"/>
<path opacity="0.7" d="M516.42 1136.05L1096.84 529.3" stroke="#969696" stroke-width="2" stroke-miterlimit="10" stroke-linecap="round" stroke-linejoin="round" stroke-dasharray="0.3 0.3"/>
<path opacity="0.7" d="M533.742 1160.12L1093.66 575.246" stroke="#969696" stroke-width="2" stroke-miterlimit="10" stroke-linecap="round" stroke-linejoin="round" stroke-dasharray="0.3 0.3"/>
</g>
</g>
<path d="M722.045 331.222C731.828 331.222 739.759 323.289 739.759 313.504C739.759 303.719 731.828 295.786 722.045 295.786C712.262 295.786 704.332 303.719 704.332 313.504C704.332 323.289 712.262 331.222 722.045 331.222Z" stroke="url(#paint2_linear_447_5746)" stroke-miterlimit="10"/>
<path d="M497.302 823.359C497.302 830.277 491.687 835.894 484.771 835.894C477.854 835.894 472.239 830.277 472.239 823.359C472.239 816.441 477.854 810.825 484.771 810.825C491.687 810.825 497.302 816.421 497.302 823.359Z" stroke="url(#paint3_linear_447_5746)" stroke-miterlimit="10"/>
<path d="M75.1088 612.334C75.1088 618.653 69.9887 623.774 63.6713 623.774C57.3539 623.774 52.2339 618.653 52.2339 612.334C52.2339 606.015 57.3539 600.894 63.6713 600.894C69.9887 600.894 75.1088 606.015 75.1088 612.334Z" fill="url(#paint4_linear_447_5746)"/>
<path d="M647.867 285.027L666.282 263.076" stroke="url(#paint5_linear_447_5746)" stroke-miterlimit="10"/>
<path d="M653.524 289.756L682.448 255.291" stroke="url(#paint6_linear_447_5746)" stroke-miterlimit="10"/>
<path d="M647.867 307.991L677.575 272.555" stroke="url(#paint7_linear_447_5746)" stroke-miterlimit="10"/>
<path d="M86.0715 540.595L104.466 518.644" stroke="url(#paint8_linear_447_5746)" stroke-miterlimit="10"/>
<path d="M91.7077 545.344L120.631 510.859" stroke="url(#paint9_linear_447_5746)" stroke-miterlimit="10"/>
<path d="M86.0715 563.558L115.759 528.122" stroke="url(#paint10_linear_447_5746)" stroke-miterlimit="10"/>
<path d="M699.976 663.444L723.47 635.401" stroke="url(#paint11_linear_447_5746)" stroke-miterlimit="10"/>
<path d="M707.181 669.494L744.115 625.447" stroke="url(#paint12_linear_447_5746)" stroke-miterlimit="10"/>
<path d="M699.976 692.767L737.922 647.522" stroke="url(#paint13_linear_447_5746)" stroke-miterlimit="10"/>
<g opacity="0.5">
<path opacity="0.5" d="M661.865 173.908L634.283 204.657" stroke="url(#paint14_linear_447_5746)" stroke-miterlimit="10"/>
<path opacity="0.5" d="M669.772 181.012L626.459 229.313" stroke="url(#paint15_linear_447_5746)" stroke-miterlimit="10"/>
<path opacity="0.5" d="M694.629 169.241L650.118 218.864" stroke="url(#paint16_linear_447_5746)" stroke-miterlimit="10"/>
</g>
<path d="M75.1089 650.103L110.102 608.369" stroke="url(#paint17_linear_447_5746)" stroke-miterlimit="10"/>
<path d="M85.8443 659.107L140.822 593.563" stroke="url(#paint18_linear_447_5746)" stroke-miterlimit="10"/>
<path d="M75.1089 693.758L131.573 626.397" stroke="url(#paint19_linear_447_5746)" stroke-miterlimit="10"/>
<path d="M140.822 559.594C144.619 559.594 147.697 556.515 147.697 552.717C147.697 548.919 144.619 545.84 140.822 545.84C137.026 545.84 133.948 548.919 133.948 552.717C133.948 556.515 137.026 559.594 140.822 559.594Z" fill="white"/>
<path d="M145.343 697.104C145.343 700.903 142.267 703.98 138.469 703.98C134.67 703.98 131.594 700.903 131.594 697.104C131.594 693.304 134.67 690.227 138.469 690.227C142.267 690.227 145.343 693.304 145.343 697.104Z" fill="white"/>
<path d="M109.339 363.602C109.339 365.357 107.914 366.782 106.159 366.782C104.404 366.782 102.98 365.357 102.98 363.602C102.98 361.846 104.404 360.422 106.159 360.422C107.914 360.442 109.339 361.846 109.339 363.602Z" fill="white"/>
<path d="M75.1087 320.381C78.9056 320.381 81.9835 317.302 81.9835 313.504C81.9835 309.706 78.9056 306.628 75.1087 306.628C71.3118 306.628 68.2338 309.706 68.2338 313.504C68.2338 317.302 71.3118 320.381 75.1087 320.381Z" fill="white"/>
<path d="M262.298 770.763C262.298 774.563 259.222 777.639 255.423 777.639C251.624 777.639 248.548 774.563 248.548 770.763C248.548 766.963 251.624 763.886 255.423 763.886C259.222 763.886 262.298 766.963 262.298 770.763Z" fill="white"/>
<path d="M706.85 766.612C706.85 770.412 703.774 773.489 699.976 773.489C696.177 773.489 693.101 770.412 693.101 766.612C693.101 762.813 696.177 759.736 699.976 759.736C703.774 759.736 706.85 762.813 706.85 766.612Z" fill="white"/>
<path d="M-1.79453 469.269C2.00233 469.269 5.08028 466.19 5.08028 462.393C5.08028 458.595 2.00233 455.516 -1.79453 455.516C-5.5914 455.516 -8.66937 458.595 -8.66937 462.393C-8.66937 466.19 -5.5914 469.269 -1.79453 469.269Z" fill="white"/>
<path d="M192.641 777.784L211.635 785.507L220.182 755.977L192.641 777.784Z" fill="#FF7E3D"/>
<path d="M140.823 753.128L156.265 792.57L215.537 740.655L140.823 753.128Z" fill="url(#paint20_linear_447_5746)"/>
<path d="M128.559 270.407L103.433 288.022L133.658 303.654L128.559 270.407Z" fill="#FF7E3D"/>
<path d="M482.645 197.16C454.877 181.714 420.482 171.554 388.936 180.599C364.451 187.62 345.974 205.916 332.018 226.525C316.307 249.715 305.241 275.714 293.514 301.052C286.33 316.56 278.505 331.47 268.018 345.058C256.745 359.678 243.326 372.646 228.358 383.426C212.874 394.556 195.821 403.25 177.736 409.259C157.112 416.115 135.682 419.915 114.521 424.706C79.7337 432.615 42.8408 444.902 20.0692 474.184C9.99437 487.131 4.00727 502.826 3.73888 519.284C3.44985 536.176 8.85892 552.82 17.3854 567.275C36.7299 600.13 70.3608 618.921 105.458 630.961C143.032 643.846 182.691 649.979 219.481 665.261C237.855 672.901 255.445 682.917 270.02 696.608C284.472 710.196 295.641 726.737 305.571 743.794C324.296 776.008 339.367 811.134 366.35 837.628C378.799 849.853 393.685 859.745 410.49 864.783C427.377 869.822 445.421 869.822 462.578 866.167C543.197 848.965 579.078 767.707 611.574 700.986C629.741 663.691 649.891 627.388 680.508 598.787C710.072 571.178 745.354 550.115 772.915 520.296C797.401 493.822 815.816 459.914 811.501 422.806C807.393 387.535 785.447 356.333 758.526 334.258C727.517 308.837 689.158 293.969 651.914 280.298C631.93 272.968 611.697 266.132 592.291 257.335C573.132 248.642 554.717 238.461 536.528 227.929C527.837 222.891 519.207 217.769 510.536 212.689C501.328 207.3 491.77 202.633 482.459 197.45C481.736 197.037 481.076 198.152 481.798 198.565C491.088 203.727 499.925 209.736 509.091 215.126C517.762 220.206 526.392 225.327 535.083 230.366C552.859 240.671 570.861 250.624 589.545 259.173C626.603 276.148 666.201 286.783 703.156 304.046C737.612 320.133 770.025 341.733 790.712 374.402C800.208 389.394 806.98 406.327 808.838 424.045C810.779 442.527 807.063 461.009 799.176 477.756C782.66 512.841 751.878 537.869 721.922 561.142C706.025 573.491 689.963 585.736 675.45 599.717C661.411 613.222 649.334 628.482 638.846 644.879C617.457 678.312 602.49 715.234 584.136 750.319C566.216 784.557 544.291 818.837 512.043 841.263C482.252 861.975 443.006 873.085 407.682 860.943C372.916 848.986 349.938 817.329 332.43 786.684C313.85 754.139 298.407 718.435 270.061 692.87C242.067 667.635 205.256 655.7 169.54 646.159C131.801 636.082 92.3892 627.822 59.1092 606.304C29.7518 587.327 5.3492 554.493 6.50533 518.169C7.66145 481.37 37.3905 455.495 68.8537 441.618C106.614 424.953 148.978 423.487 187.378 408.702C219.543 396.312 248.054 374.959 269.256 347.825C288.085 323.747 298.696 295.063 311.93 267.805C323.347 244.284 336.291 220.165 355.883 202.364C376.116 183.965 402.087 177.026 429.008 180.785C447.568 183.366 465.22 189.974 481.633 198.916C482.748 199.473 483.739 197.78 482.645 197.16Z" fill="url(#paint21_linear_447_5746)"/>
<g opacity="0.4248">
<path opacity="0.4248" d="M493.38 137.357C461.628 119.701 422.278 108.096 386.211 118.462C358.237 126.495 337.117 147.414 321.179 170.955C303.197 197.511 290.542 227.269 277.102 256.262C268.864 274.041 259.904 291.099 247.909 306.669C235.006 323.416 219.625 338.305 202.449 350.633C184.714 363.395 165.163 373.349 144.456 380.225C120.859 388.072 96.3118 392.409 72.095 397.922C32.3118 406.967 -9.90757 421.009 -35.9618 454.504C-47.4611 469.29 -54.274 487.214 -54.6044 506.006C-54.9347 525.314 -48.7411 544.312 -39.0172 560.832C-16.9063 598.395 21.5557 619.892 61.6899 633.645C104.714 648.389 150.113 655.41 192.229 672.901C213.308 681.657 233.478 693.139 250.18 708.833C266.738 724.382 279.538 743.339 290.913 762.895C312.322 799.756 329.582 839.962 360.467 870.276C374.691 884.257 391.682 895.552 410.903 901.314C430.206 907.075 450.81 907.075 470.423 902.904C562.645 883.224 603.687 790.236 640.869 713.892C661.68 671.187 684.74 629.598 719.837 596.846C753.695 565.251 794.077 541.132 825.623 506.997C853.618 476.724 874.676 437.963 869.721 395.527C865.014 355.218 839.909 319.534 809.127 294.299C773.659 265.224 729.767 248.208 687.176 232.576C664.281 224.171 641.096 216.344 618.861 206.267C596.936 196.314 575.837 184.667 555.027 172.587C545.076 166.825 535.187 160.961 525.277 155.137C514.748 148.963 503.847 143.532 493.194 137.605C492.472 137.192 491.811 138.307 492.534 138.72C503.166 144.626 513.344 151.42 523.852 157.574C533.762 163.397 543.672 169.241 553.602 175.023C573.938 186.815 594.542 198.214 615.93 208.002C658.356 227.434 703.692 239.597 745.994 259.359C785.468 277.8 822.588 302.539 846.309 339.957C857.189 357.138 864.952 376.57 867.078 396.89C869.308 418.098 865.034 439.264 855.971 458.49C837.04 498.675 801.798 527.337 767.507 553.997C749.298 568.142 730.923 582.143 714.304 598.147C698.242 613.594 684.43 631.064 672.436 649.814C647.951 688.1 630.815 730.371 609.798 770.536C589.256 809.771 564.152 849.027 527.197 874.716C493.05 898.443 448.043 911.185 407.558 897.246C367.713 883.534 341.349 847.272 321.282 812.125C300.018 774.893 282.345 734.026 249.912 704.765C217.891 675.896 175.775 662.246 134.918 651.342C91.7079 639.799 46.557 630.32 8.46663 605.705C-25.185 583.961 -53.1592 546.294 -51.8585 504.643C-50.5372 462.454 -16.4521 432.759 19.615 416.838C62.846 397.757 111.383 396.084 155.357 379.131C192.126 364.964 224.745 340.515 249.003 309.498C270.557 281.93 282.696 249.117 297.829 217.935C310.918 190.986 325.741 163.377 348.183 142.974C371.409 121.87 401.179 113.919 432.085 118.256C453.349 121.229 473.561 128.787 492.348 139.051C493.504 139.649 494.495 137.956 493.38 137.357Z" fill="url(#paint22_linear_447_5746)"/>
</g>
<path d="M642.81 604.322C667.13 578.034 697.891 559.16 724.441 535.371C747.584 514.638 768.848 488.288 774.051 456.796C779.047 426.399 767.238 396.497 748.182 373.142C726.959 347.123 697.416 330.231 666.985 317.097C633.726 302.745 598.608 292.978 565.989 277.118C533.493 261.3 503.641 240.815 471.62 224.192C447.362 211.595 417.571 203.893 390.588 211.678C369.819 217.666 353.715 232.617 341.37 249.839C327.269 269.498 317.339 291.842 307.284 313.711C301.524 326.266 295.888 338.863 288.312 350.468C279.826 363.436 269.566 375.228 257.943 385.47C246.03 395.981 232.652 404.82 218.324 411.655C201.829 419.523 184.095 424.128 166.319 428.072C133.989 435.237 100.296 441.019 73.1477 461.381C61.7309 469.95 51.8625 480.854 46.1025 494.049C40.3425 507.224 39.1863 521.824 42.0973 535.866C48.3528 565.974 70.4432 590.218 96.518 605.168C155.439 638.973 233.684 633.17 284.306 682.524C308.874 706.479 322.19 738.734 339.326 767.831C354.541 793.685 374.133 819.394 402.768 831.02C431.981 842.894 465.261 836.699 492.162 821.79C521.251 805.682 542.557 779.085 559.279 750.918C563.491 743.814 567.455 736.587 571.253 729.256C575.176 721.719 578.19 713.83 581.886 706.189C582.237 705.446 581.143 704.785 580.771 705.529C577.117 713.107 572.699 720.356 568.817 727.81C564.915 735.306 560.869 742.74 556.533 750.009C548.007 764.32 538.448 778.052 527.135 790.298C505.313 813.922 475.893 831.681 443.295 834.2C427.625 835.419 411.811 832.755 397.71 825.693C383.94 818.795 372.337 808.367 362.51 796.617C341.803 771.857 329.416 741.749 312.57 714.47C304.188 700.903 294.608 687.935 282.737 677.217C270.804 666.438 256.828 658.178 242.17 651.714C212.048 638.415 179.532 632.427 148.11 623.072C116.812 613.759 84.998 600.439 64.0019 574.338C44.9877 550.693 35.9657 517.735 51.3257 489.837C66.2315 462.764 96.518 448.35 125.091 440.483C158.515 431.273 193.55 427.783 224.724 411.613C251.026 397.984 273.757 377.52 290.108 352.822C304.064 331.759 312.673 307.433 323.986 284.924C333.979 265.079 345.519 244.966 362.531 230.263C380.162 215.023 402.438 209.262 425.416 212.153C459.708 216.448 488.693 236.912 517.824 253.928C533.163 262.89 548.626 271.687 564.626 279.452C580.048 286.948 595.945 293.04 612.048 298.884C671.961 320.711 745.044 345.925 767.589 412.625C772.565 427.328 774.03 443.064 771.119 458.345C768.146 473.915 761.065 488.37 751.961 501.256C732.513 528.845 704.766 548.38 678.67 569.113C665.519 579.562 652.719 590.465 641.426 602.917C640.58 603.867 641.963 605.251 642.81 604.322Z" fill="url(#paint23_linear_447_5746)"/>
</g>
</g>
<defs>
<linearGradient id="paint0_linear_447_5746" x1="736" y1="0" x2="736" y2="1175" gradientUnits="userSpaceOnUse">
<stop stop-color="#091D6E"/>
<stop offset="1" stop-color="#4E009C"/>
</linearGradient>
<linearGradient id="paint1_linear_447_5746" x1="200.753" y1="872.004" x2="-93.8728" y2="1086.61" gradientUnits="userSpaceOnUse">
<stop offset="0.1031" stop-color="#400693"/>
<stop offset="0.3506" stop-color="#3E0792"/>
<stop offset="0.714" stop-color="#1E2422"/>
<stop offset="0.9948" stop-color="#1B1F1C"/>
</linearGradient>
<linearGradient id="paint2_linear_447_5746" x1="703.292" y1="313.512" x2="740.795" y2="313.512" gradientUnits="userSpaceOnUse">
<stop offset="0.0277" stop-color="#FFD24D"/>
<stop offset="0.7154" stop-color="#F6BE56"/>
<stop offset="1" stop-color="#F2B45A"/>
</linearGradient>
<linearGradient id="paint3_linear_447_5746" x1="471.201" y1="823.352" x2="498.324" y2="823.352" gradientUnits="userSpaceOnUse">
<stop offset="0.0277" stop-color="#FFD24D"/>
<stop offset="0.7154" stop-color="#F6BE56"/>
<stop offset="1" stop-color="#F2B45A"/>
</linearGradient>
<linearGradient id="paint4_linear_447_5746" x1="52.2496" y1="612.328" x2="75.1077" y2="612.328" gradientUnits="userSpaceOnUse">
<stop offset="0.0277" stop-color="#FFD24D"/>
<stop offset="0.7154" stop-color="#F6BE56"/>
<stop offset="1" stop-color="#F2B45A"/>
</linearGradient>
<linearGradient id="paint5_linear_447_5746" x1="646.266" y1="274.997" x2="667.892" y2="273.102" gradientUnits="userSpaceOnUse">
<stop offset="0.0277" stop-color="#FFD24D"/>
<stop offset="0.7154" stop-color="#F6BE56"/>
<stop offset="1" stop-color="#F2B45A"/>
</linearGradient>
<linearGradient id="paint6_linear_447_5746" x1="651.412" y1="273.976" x2="684.558" y2="271.072" gradientUnits="userSpaceOnUse">
<stop offset="0.0277" stop-color="#FFD24D"/>
<stop offset="0.7154" stop-color="#F6BE56"/>
<stop offset="1" stop-color="#F2B45A"/>
</linearGradient>
<linearGradient id="paint7_linear_447_5746" x1="645.723" y1="291.761" x2="679.738" y2="288.781" gradientUnits="userSpaceOnUse">
<stop offset="0.0277" stop-color="#FFD24D"/>
<stop offset="0.7154" stop-color="#F6BE56"/>
<stop offset="1" stop-color="#F2B45A"/>
</linearGradient>
<linearGradient id="paint8_linear_447_5746" x1="85.2713" y1="529.62" x2="105.258" y2="529.62" gradientUnits="userSpaceOnUse">
<stop offset="0.0277" stop-color="#FFD24D"/>
<stop offset="0.1674" stop-color="#EBC34D"/>
<stop offset="0.4544" stop-color="#B69D4D"/>
<stop offset="0.8604" stop-color="#625F4E"/>
<stop offset="1" stop-color="#44494E"/>
</linearGradient>
<linearGradient id="paint9_linear_447_5746" x1="90.9228" y1="528.095" x2="121.419" y2="528.095" gradientUnits="userSpaceOnUse">
<stop offset="0.0277" stop-color="#FFD24D"/>
<stop offset="0.1674" stop-color="#EBC34D"/>
<stop offset="0.4544" stop-color="#B69D4D"/>
<stop offset="0.8604" stop-color="#625F4E"/>
<stop offset="1" stop-color="#44494E"/>
</linearGradient>
<linearGradient id="paint10_linear_447_5746" x1="85.2713" y1="545.842" x2="116.56" y2="545.842" gradientUnits="userSpaceOnUse">
<stop offset="0.0277" stop-color="#FFD24D"/>
<stop offset="0.1674" stop-color="#EBC34D"/>
<stop offset="0.4544" stop-color="#B69D4D"/>
<stop offset="0.8604" stop-color="#625F4E"/>
<stop offset="1" stop-color="#44494E"/>
</linearGradient>
<linearGradient id="paint11_linear_447_5746" x1="698.111" y1="650.616" x2="725.333" y2="648.231" gradientUnits="userSpaceOnUse">
<stop offset="0.0277" stop-color="#FFD24D"/>
<stop offset="0.7154" stop-color="#F6BE56"/>
<stop offset="1" stop-color="#F2B45A"/>
</linearGradient>
<linearGradient id="paint12_linear_447_5746" x1="704.685" y1="649.313" x2="746.622" y2="645.639" gradientUnits="userSpaceOnUse">
<stop offset="0.0277" stop-color="#FFD24D"/>
<stop offset="0.7154" stop-color="#F6BE56"/>
<stop offset="1" stop-color="#F2B45A"/>
</linearGradient>
<linearGradient id="paint13_linear_447_5746" x1="697.417" y1="672.032" x2="740.465" y2="668.26" gradientUnits="userSpaceOnUse">
<stop offset="0.0277" stop-color="#FFD24D"/>
<stop offset="0.7154" stop-color="#F6BE56"/>
<stop offset="1" stop-color="#F2B45A"/>
</linearGradient>
<linearGradient id="paint14_linear_447_5746" x1="647.244" y1="173.977" x2="648.903" y2="204.599" gradientUnits="userSpaceOnUse">
<stop offset="0.0277" stop-color="#FFD24D"/>
<stop offset="0.7154" stop-color="#F6BE56"/>
<stop offset="1" stop-color="#F2B45A"/>
</linearGradient>
<linearGradient id="paint15_linear_447_5746" x1="646.834" y1="181.534" x2="649.396" y2="228.81" gradientUnits="userSpaceOnUse">
<stop offset="0.0277" stop-color="#FFD24D"/>
<stop offset="0.7154" stop-color="#F6BE56"/>
<stop offset="1" stop-color="#F2B45A"/>
</linearGradient>
<linearGradient id="paint16_linear_447_5746" x1="671.061" y1="169.793" x2="673.691" y2="218.325" gradientUnits="userSpaceOnUse">
<stop offset="0.0277" stop-color="#FFD24D"/>
<stop offset="0.7154" stop-color="#F6BE56"/>
<stop offset="1" stop-color="#F2B45A"/>
</linearGradient>
<linearGradient id="paint17_linear_447_5746" x1="72.7" y1="630.982" x2="112.503" y2="627.494" gradientUnits="userSpaceOnUse">
<stop offset="0.0277" stop-color="#FFD24D"/>
<stop offset="0.1674" stop-color="#EBC34D"/>
<stop offset="0.4544" stop-color="#B69D4D"/>
<stop offset="0.8604" stop-color="#625F4E"/>
<stop offset="1" stop-color="#44494E"/>
</linearGradient>
<linearGradient id="paint18_linear_447_5746" x1="82.4839" y1="629.042" x2="144.187" y2="623.636" gradientUnits="userSpaceOnUse">
<stop offset="0.0277" stop-color="#FFD24D"/>
<stop offset="0.1674" stop-color="#EBC34D"/>
<stop offset="0.4544" stop-color="#B69D4D"/>
<stop offset="0.8604" stop-color="#625F4E"/>
<stop offset="1" stop-color="#44494E"/>
</linearGradient>
<linearGradient id="paint19_linear_447_5746" x1="71.6682" y1="662.853" x2="135.022" y2="657.302" gradientUnits="userSpaceOnUse">
<stop offset="0.0277" stop-color="#FFD24D"/>
<stop offset="0.1674" stop-color="#EBC34D"/>
<stop offset="0.4544" stop-color="#B69D4D"/>
<stop offset="0.8604" stop-color="#625F4E"/>
<stop offset="1" stop-color="#44494E"/>
</linearGradient>
<linearGradient id="paint20_linear_447_5746" x1="140.82" y1="766.614" x2="215.537" y2="766.614" gradientUnits="userSpaceOnUse">
<stop offset="0.0277" stop-color="#FFD24D"/>
<stop offset="0.7154" stop-color="#FFBE56"/>
<stop offset="1" stop-color="#FFB45A"/>
</linearGradient>
<linearGradient id="paint21_linear_447_5746" x1="49.5464" y1="660.973" x2="801.664" y2="387.292" gradientUnits="userSpaceOnUse">
<stop offset="0.0277" stop-color="#FFD24D"/>
<stop offset="0.0356" stop-color="#F7CC4C"/>
<stop offset="0.0797" stop-color="#CEAE4A"/>
<stop offset="0.1292" stop-color="#A89348"/>
<stop offset="0.1831" stop-color="#887B45"/>
<stop offset="0.2427" stop-color="#6C6744"/>
<stop offset="0.3099" stop-color="#565742"/>
<stop offset="0.3884" stop-color="#454B41"/>
<stop offset="0.4856" stop-color="#9B6BD9"/>
<stop offset="0.6218" stop-color="#BB6BD9"/>
<stop offset="1" stop-color="#BB6BD9"/>
</linearGradient>
<linearGradient id="paint22_linear_447_5746" x1="-54.6068" y1="510.213" x2="870.459" y2="510.213" gradientUnits="userSpaceOnUse">
<stop stop-color="#5C5A44"/>
<stop offset="0.6103" stop-color="#3F4541"/>
<stop offset="1" stop-color="#313C40"/>
</linearGradient>
<linearGradient id="paint23_linear_447_5746" x1="231.764" y1="301.232" x2="625.559" y2="694.929" gradientUnits="userSpaceOnUse">
<stop stop-color="#BB6BD9"/>
<stop offset="0.251" stop-color="#BB6BD9"/>
<stop offset="0.397" stop-color="#3C4441"/>
<stop offset="0.5161" stop-color="#262F56"/>
<stop offset="0.6208" stop-color="#5E5D43"/>
<stop offset="0.716" stop-color="#786F44"/>
<stop offset="0.8042" stop-color="#988746"/>
<stop offset="0.8873" stop-color="#BDA249"/>
<stop offset="0.964" stop-color="#E8C14C"/>
<stop offset="1" stop-color="#FFD24D"/>
</linearGradient>
<clipPath id="clip0_447_5746">
<rect width="707" height="900" fill="white"/>
</clipPath>
<clipPath id="clip1_447_5746">
<rect width="1472" height="1175" fill="white" transform="translate(-258 -55)"/>
</clipPath>
</defs>
</svg>
